<?xml version="1.0" encoding="UTF-8"?>
<!DOCTYPE svg PUBLIC "-//W3C//DTD SVG 1.1//EN" "http://www.w3.org/Graphics/SVG/1.1/DTD/svg11.dtd">
<svg xmlns="http://www.w3.org/2000/svg" version="1.1" width="2000px" height="1200px" style="shape-rendering:geometricPrecision; text-rendering:geometricPrecision; image-rendering:optimizeQuality; fill-rule:evenodd; clip-rule:evenodd" xmlns:xlink="http://www.w3.org/1999/xlink">
<g><path style="opacity:1" fill="#fefefe" d="M -0.5,-0.5 C 666.167,-0.5 1332.83,-0.5 1999.5,-0.5C 1999.5,399.5 1999.5,799.5 1999.5,1199.5C 1332.83,1199.5 666.167,1199.5 -0.5,1199.5C -0.5,799.5 -0.5,399.5 -0.5,-0.5 Z"/></g>
<g><path style="opacity:1" fill="#0f0f0f" d="M 1687.5,142.5 C 1688.24,142.369 1688.91,142.536 1689.5,143C 1687.96,144.11 1687.3,145.61 1687.5,147.5C 1686.21,147.263 1685.21,147.596 1684.5,148.5C 1615.08,154.404 1546.08,163.57 1477.5,176C 1452.5,180.901 1427.5,185.734 1402.5,190.5C 1400.15,189.012 1399.82,187.012 1401.5,184.5C 1495.93,164.413 1591.27,150.413 1687.5,142.5 Z"/></g>
<g><path style="opacity:1" fill="#3e3e3e" d="M 1687.5,142.5 C 1693.98,141.509 1700.65,141.176 1707.5,141.5C 1707.5,143.167 1707.5,144.833 1707.5,146.5C 1711.7,146.183 1715.7,146.517 1719.5,147.5C 1707.81,147.279 1696.14,147.612 1684.5,148.5C 1685.21,147.596 1686.21,147.263 1687.5,147.5C 1687.3,145.61 1687.96,144.11 1689.5,143C 1688.91,142.536 1688.24,142.369 1687.5,142.5 Z"/></g>
<g><path style="opacity:1" fill="#3b3b3b" d="M 1401.5,184.5 C 1399.82,187.012 1400.15,189.012 1402.5,190.5C 1400.29,191.268 1397.95,191.935 1395.5,192.5C 1395.97,189.918 1395.31,187.918 1393.5,186.5C 1396,185.629 1398.67,184.963 1401.5,184.5 Z"/></g>
<g><path style="opacity:1" fill="#3a3a3a" d="M 1077.5,250.5 C 1079.03,250.427 1080.03,251.094 1080.5,252.5C 1080.06,252.435 1079.73,252.601 1079.5,253C 1081.83,255.333 1084.17,257.667 1086.5,260C 1085.62,260.708 1084.95,261.542 1084.5,262.5C 1080.75,259.408 1076.75,256.741 1072.5,254.5C 1075.06,254.269 1076.73,252.935 1077.5,250.5 Z"/></g>
<g><path style="opacity:1" fill="#fbfbfb" d="M 485.5,612.5 C 485.082,611.778 484.416,611.278 483.5,611C 484.942,610.623 485.942,609.79 486.5,608.5C 488.611,609.968 490.444,609.635 492,607.5C 492.632,596.258 488.466,587.091 479.5,580C 477.011,579.059 475.011,579.559 473.5,581.5C 472.395,580.4 471.062,579.733 469.5,579.5C 488.761,570.516 508.094,561.516 527.5,552.5C 543.352,545.406 559.018,538.072 574.5,530.5C 719.053,463.72 863.386,396.72 1007.5,329.5C 1018.25,324.789 1028.91,320.122 1039.5,315.5C 1051.71,312.861 1064.05,311.361 1076.5,311C 1069.96,318.369 1063.29,325.536 1056.5,332.5C 1053.06,327.791 1049.72,322.958 1046.5,318C 1043,317.5 1041.5,319 1042,322.5C 1044.92,326.666 1047.58,330.999 1050,335.5C 1050.75,336.635 1050.58,337.635 1049.5,338.5C 861.592,430.025 673.592,521.358 485.5,612.5 Z"/></g>
<g><path style="opacity:1" fill="#2f2f2f" d="M 1043.5,308.5 C 1043.8,309.15 1044.14,309.817 1044.5,310.5C 1042.48,311.855 1040.81,313.521 1039.5,315.5C 1028.91,320.122 1018.25,324.789 1007.5,329.5C 1006.42,327.413 1004.75,326.08 1002.5,325.5C 1015.52,318.496 1029.19,312.83 1043.5,308.5 Z"/></g>
<g><path style="opacity:1" fill="#101010" d="M 1393.5,186.5 C 1395.31,187.918 1395.97,189.918 1395.5,192.5C 1361.27,199.448 1327.61,208.615 1294.5,220C 1286.88,223.477 1279.54,227.477 1272.5,232C 1243,256.167 1216.17,283 1192,312.5C 1150.14,363.891 1110.48,416.891 1073,471.5C 1045.23,512.727 1017.73,554.06 990.5,595.5C 989.265,595.279 988.265,594.612 987.5,593.5C 986.186,594.313 985.019,595.313 984,596.5C 983.601,596.272 983.435,595.938 983.5,595.5C 1038.58,508.09 1097.58,423.423 1160.5,341.5C 1139.94,310.605 1114.61,284.272 1084.5,262.5C 1084.95,261.542 1085.62,260.708 1086.5,260C 1084.17,257.667 1081.83,255.333 1079.5,253C 1079.73,252.601 1080.06,252.435 1080.5,252.5C 1113.76,275.089 1142.09,302.755 1165.5,335.5C 1191.82,302.003 1220.49,270.503 1251.5,241C 1263.47,230.042 1276.8,221.042 1291.5,214C 1324.98,202.753 1358.98,193.586 1393.5,186.5 Z"/></g>
<g><path style="opacity:1" fill="#0f0f0f" d="M 1002.5,325.5 C 1004.75,326.08 1006.42,327.413 1007.5,329.5C 863.386,396.72 719.053,463.72 574.5,530.5C 573.957,530.44 573.624,530.107 573.5,529.5C 574.648,527.851 575.981,526.351 577.5,525C 576.402,524.23 576.402,523.397 577.5,522.5C 718.982,456.594 860.649,390.928 1002.5,325.5 Z"/></g>
<g><path style="opacity:1" fill="#efefef" d="M 1721.5,344.5 C 1722.91,345.935 1724.58,346.935 1726.5,347.5C 1724.86,347.286 1723.36,347.62 1722,348.5C 1711.24,373.642 1700.41,398.642 1689.5,423.5C 1688.65,421.415 1688.32,419.415 1688.5,417.5C 1686.94,415.299 1685.78,415.299 1685,417.5C 1684.62,416.944 1684.12,416.611 1683.5,416.5C 1696.15,392.528 1708.82,368.528 1721.5,344.5 Z"/></g>
<g><path style="opacity:1" fill="#111111" d="M 1721.5,344.5 C 1708.82,368.528 1696.15,392.528 1683.5,416.5C 1645.98,487.872 1606.15,557.872 1564,626.5C 1555.16,640.183 1545.83,653.516 1536,666.5C 1532.5,670 1529,673.5 1525.5,677C 1522.64,678.399 1519.64,679.399 1516.5,680C 1488.1,681.814 1459.76,680.981 1431.5,677.5C 1431.53,676.503 1431.03,675.836 1430,675.5C 1423.41,677.182 1422.91,675.848 1428.5,671.5C 1448.98,672.952 1469.48,673.952 1490,674.5C 1499.88,674.581 1509.71,674.081 1519.5,673C 1523.24,671.262 1526.41,668.762 1529,665.5C 1538.49,653.185 1547.49,640.518 1556,627.5C 1626.09,512.008 1691.09,393.341 1751,271.5C 1756.06,260.723 1760.56,249.723 1764.5,238.5C 1763.73,235.896 1762.06,234.062 1759.5,233C 1754.9,231.683 1750.23,230.683 1745.5,230C 1735.17,229.667 1724.83,229.333 1714.5,229C 1711.83,227 1711.83,225 1714.5,223C 1732.44,221.134 1749.77,223.468 1766.5,230C 1768.87,231.743 1770.2,234.077 1770.5,237C 1766.79,248.802 1762.29,260.302 1757,271.5C 1745.16,295.855 1733.32,320.189 1721.5,344.5 Z"/></g>
<g><path style="opacity:1" fill="#fbfbfb" d="M 1689.5,423.5 C 1650.95,514.261 1612.12,604.928 1573,695.5C 1569.55,704.254 1564.71,712.088 1558.5,719C 1549.18,725.251 1538.85,728.584 1527.5,729C 1503.34,729.765 1479.34,728.098 1455.5,724C 1403.68,715.12 1351.68,707.454 1299.5,701C 1264.27,697.172 1228.94,695.006 1193.5,694.5C 1174.99,693.305 1156.33,693.305 1137.5,694.5C 1093.66,695.089 1050.33,699.922 1007.5,709C 955.422,720.1 915.588,748.267 888,793.5C 903.966,759.157 927.8,731.323 959.5,710C 986.965,695.18 1016.3,686.18 1047.5,683C 1099.04,676.951 1150.7,672.284 1202.5,669C 1234.5,668.333 1266.5,668.333 1298.5,669C 1334.87,670.73 1371.21,672.897 1407.5,675.5C 1415.32,676.492 1423.32,677.159 1431.5,677.5C 1459.76,680.981 1488.1,681.814 1516.5,680C 1519.64,679.399 1522.64,678.399 1525.5,677C 1529,673.5 1532.5,670 1536,666.5C 1545.83,653.516 1555.16,640.183 1564,626.5C 1606.15,557.872 1645.98,487.872 1683.5,416.5C 1684.12,416.611 1684.62,416.944 1685,417.5C 1685.78,415.299 1686.94,415.299 1688.5,417.5C 1688.32,419.415 1688.65,421.415 1689.5,423.5 Z"/></g>
<g><path style="opacity:1" fill="#101010" d="M 1766.5,578.5 C 1764.33,576.66 1763,574.326 1762.5,571.5C 1773.64,535.622 1784.47,499.622 1795,463.5C 1797.87,455.395 1795.71,448.895 1788.5,444C 1764.17,427.837 1738.17,414.837 1710.5,405C 1708.82,402.214 1709.48,400.38 1712.5,399.5C 1738.87,409.022 1763.87,421.188 1787.5,436C 1791.97,439.465 1796.13,443.298 1800,447.5C 1801.4,449.639 1802.24,451.972 1802.5,454.5C 1792.05,496.308 1780.05,537.641 1766.5,578.5 Z"/></g>
<g><path style="opacity:1" fill="#0f0f0f" d="M 1351.5,1005.5 C 1349.91,1001.08 1351.58,999.415 1356.5,1000.5C 1451.32,1018.07 1546.32,1034.57 1641.5,1050C 1669.71,1055.73 1689.54,1045.57 1701,1019.5C 1718.91,963.465 1735.74,907.131 1751.5,850.5C 1783.77,743.099 1815.61,635.433 1847,527.5C 1849.8,517.626 1851.97,507.626 1853.5,497.5C 1853.52,490.711 1851.19,484.878 1846.5,480C 1845.67,479.312 1845,479.479 1844.5,480.5C 1847.2,484.434 1848.04,488.768 1847,493.5C 1815.39,612.047 1780.89,729.714 1743.5,846.5C 1739.68,856.772 1736.01,867.105 1732.5,877.5C 1730.27,877.223 1728.61,876.223 1727.5,874.5C 1768.42,749.472 1805.92,623.472 1840,496.5C 1841.09,490.903 1840.42,485.57 1838,480.5C 1830.38,472.106 1821.55,465.272 1811.5,460C 1810.17,458.333 1810.17,456.667 1811.5,455C 1814.42,454.448 1817.09,455.115 1819.5,457C 1825.4,460.231 1830.73,464.231 1835.5,469C 1854.92,473.459 1862.75,485.626 1859,505.5C 1816.6,654.422 1773.27,803.089 1729,951.5C 1721.67,974.812 1714.34,998.145 1707,1021.5C 1696.42,1048.55 1676.59,1060.38 1647.5,1057C 1548.54,1041.46 1449.87,1024.3 1351.5,1005.5 Z"/></g>
<g><path style="opacity:1" fill="#0f0f0f" d="M 485.5,612.5 C 673.592,521.358 861.592,430.025 1049.5,338.5C 1050.58,337.635 1050.75,336.635 1050,335.5C 1047.58,330.999 1044.92,326.666 1042,322.5C 1041.5,319 1043,317.5 1046.5,318C 1049.72,322.958 1053.06,327.791 1056.5,332.5C 1063.29,325.536 1069.96,318.369 1076.5,311C 1064.05,311.361 1051.71,312.861 1039.5,315.5C 1040.81,313.521 1042.48,311.855 1044.5,310.5C 1044.14,309.817 1043.8,309.15 1043.5,308.5C 1057.72,305.511 1072.05,304.178 1086.5,304.5C 1086.83,305.167 1087.17,305.833 1087.5,306.5C 1079.77,317.402 1071.1,327.568 1061.5,337C 1056.86,341.654 1051.53,345.321 1045.5,348C 845.679,445.076 645.679,541.91 445.5,638.5C 442.483,637.62 441.816,635.786 443.5,633C 457.404,625.881 471.404,619.048 485.5,612.5 Z"/></g>
<g><path style="opacity:1" fill="#f2f2f2" d="M 1751.5,850.5 C 1750.91,847.215 1749.74,846.882 1748,849.5C 1747.33,846.833 1746.67,846.833 1746,849.5C 1745.62,848.058 1744.79,847.058 1743.5,846.5C 1780.89,729.714 1815.39,612.047 1847,493.5C 1848.04,488.768 1847.2,484.434 1844.5,480.5C 1845,479.479 1845.67,479.312 1846.5,480C 1851.19,484.878 1853.52,490.711 1853.5,497.5C 1851.97,507.626 1849.8,517.626 1847,527.5C 1815.61,635.433 1783.77,743.099 1751.5,850.5 Z"/></g>
<g><path style="opacity:1" fill="#2f2f2f" d="M 577.5,522.5 C 576.402,523.397 576.402,524.23 577.5,525C 575.981,526.351 574.648,527.851 573.5,529.5C 573.624,530.107 573.957,530.44 574.5,530.5C 559.018,538.072 543.352,545.406 527.5,552.5C 528.113,548.715 530.113,545.882 533.5,544C 533.272,543.601 532.938,543.435 532.5,543.5C 547.311,536.263 562.311,529.263 577.5,522.5 Z"/></g>
<g><path style="opacity:1" fill="#101010" d="M 1707.5,141.5 C 1714.17,141.334 1720.84,141.5 1727.5,142C 1730.05,142.761 1732.55,143.594 1735,144.5C 1736.04,151.14 1735.04,157.473 1732,163.5C 1727.86,172.918 1723.53,182.252 1719,191.5C 1703.51,219.826 1687.51,247.826 1671,275.5C 1621.75,355.007 1571.75,434.007 1521,512.5C 1513.48,524.877 1506.48,537.543 1500,550.5C 1489.89,561.474 1477.73,569.308 1463.5,574C 1420.36,586.246 1376.36,593.412 1331.5,595.5C 1325.93,595.376 1320.6,596.043 1315.5,597.5C 1222.22,605.985 1131.55,626.152 1043.5,658C 1019.22,667.026 995.89,677.859 973.5,690.5C 923.791,717.719 888.291,757.719 867,810.5C 860.968,825.622 857.968,841.288 858,857.5C 861.716,845.684 866.216,834.184 871.5,823C 870.465,821.726 869.298,820.56 868,819.5C 880.118,790.274 896.118,763.274 916,738.5C 927.737,724.75 941.237,713.25 956.5,704C 963.769,699.868 971.102,696.035 978.5,692.5C 999.941,685.111 1021.94,679.944 1044.5,677C 1091.77,671.674 1139.1,667.008 1186.5,663C 1262.48,660.364 1338.15,662.864 1413.5,670.5C 1412.86,671.482 1412.19,672.482 1411.5,673.5C 1412.03,674.192 1412.69,674.692 1413.5,675C 1411.53,675.495 1409.53,675.662 1407.5,675.5C 1371.21,672.897 1334.87,670.73 1298.5,669C 1266.5,668.333 1234.5,668.333 1202.5,669C 1150.7,672.284 1099.04,676.951 1047.5,683C 1016.3,686.18 986.965,695.18 959.5,710C 927.8,731.323 903.966,759.157 888,793.5C 915.588,748.267 955.422,720.1 1007.5,709C 1050.33,699.922 1093.66,695.089 1137.5,694.5C 1135.83,696.5 1134.17,698.5 1132.5,700.5C 1094.2,701.939 1056.2,706.106 1018.5,713C 961.071,723.102 917.904,753.269 889,803.5C 876.94,824.294 867.606,846.294 861,869.5C 859.612,870.554 858.112,870.72 856.5,870C 856.016,866.863 854.516,864.363 852,862.5C 851.333,842.826 854.666,823.826 862,805.5C 885.455,750.387 923.622,708.887 976.5,681C 1035.22,651.983 1096.55,630.316 1160.5,616C 1226.01,600.803 1292.35,591.137 1359.5,587C 1392.09,584.548 1424.09,578.882 1455.5,570C 1466.51,566.33 1476.84,561.33 1486.5,555C 1494.41,548.429 1499.91,540.262 1503,530.5C 1541.27,469.233 1579.94,408.233 1619,347.5C 1653.86,292.287 1687.53,236.287 1720,179.5C 1724.9,170.627 1728.74,161.294 1731.5,151.5C 1731.17,150.833 1730.83,150.167 1730.5,149.5C 1727.05,147.776 1723.38,147.109 1719.5,147.5C 1715.7,146.517 1711.7,146.183 1707.5,146.5C 1707.5,144.833 1707.5,143.167 1707.5,141.5 Z"/></g>
<g><path style="opacity:1" fill="#0f0f0f" d="M 1077.5,250.5 C 1076.73,252.935 1075.06,254.269 1072.5,254.5C 1045.79,237.043 1016.46,228.043 984.5,227.5C 870.038,234.55 755.704,243.383 641.5,254C 632.722,254.846 624.056,256.18 615.5,258C 485.473,391.353 357.639,526.52 232,663.5C 214.292,683.539 196.959,703.873 180,724.5C 179.249,728.595 181.082,730.762 185.5,731C 199.167,731.667 212.833,731.667 226.5,731C 269.047,726.178 311.714,723.011 354.5,721.5C 353.193,723.482 351.859,725.482 350.5,727.5C 339.976,727.553 329.643,728.22 319.5,729.5C 282.217,732.829 244.883,735.496 207.5,737.5C 198.041,737.84 188.708,737.007 179.5,735C 173.002,732.846 171.835,729.012 176,723.5C 179.333,718.833 182.667,714.167 186,709.5C 213.63,676.703 241.796,644.37 270.5,612.5C 291.472,589.859 312.472,567.193 333.5,544.5C 395.707,477.453 458.54,410.787 522,344.5C 552.139,313.361 582.639,282.528 613.5,252C 650.334,246.621 687.334,242.621 724.5,240C 811.782,232.815 899.115,226.315 986.5,220.5C 1019.76,222.056 1050.1,232.056 1077.5,250.5 Z"/></g>
<g><path style="opacity:1" fill="#141414" d="M 486.5,608.5 C 486.828,598.155 482.661,590.155 474,584.5C 473.517,583.552 473.351,582.552 473.5,581.5C 475.011,579.559 477.011,579.059 479.5,580C 488.466,587.091 492.632,596.258 492,607.5C 490.444,609.635 488.611,609.968 486.5,608.5 Z"/></g>
<g><path style="opacity:1" fill="#363636" d="M 1762.5,571.5 C 1763,574.326 1764.33,576.66 1766.5,578.5C 1765.54,582.379 1764.21,586.045 1762.5,589.5C 1760.19,593.139 1757.19,596.139 1753.5,598.5C 1756.05,589.255 1759.05,580.255 1762.5,571.5 Z"/></g>
<g><path style="opacity:1" fill="#eeeeee" d="M 329.5,541.5 C 330.526,542.853 331.859,543.853 333.5,544.5C 312.472,567.193 291.472,589.859 270.5,612.5C 270.047,611.542 269.381,610.708 268.5,610C 271.294,608.964 271.794,607.464 270,605.5C 268.415,606.376 267.415,607.709 267,609.5C 266.329,608.748 265.496,608.414 264.5,608.5C 285.107,588.061 305.94,567.728 327,547.5C 328.559,545.783 329.392,543.783 329.5,541.5 Z"/></g>
<g><path style="opacity:1" fill="#b9b9b9" d="M 1331.5,595.5 C 1326.38,596.806 1321.05,597.473 1315.5,597.5C 1320.6,596.043 1325.93,595.376 1331.5,595.5 Z"/></g>
<g><path style="opacity:1" fill="#0f0f0f" d="M 532.5,543.5 C 532.938,543.435 533.272,543.601 533.5,544C 530.113,545.882 528.113,548.715 527.5,552.5C 508.094,561.516 488.761,570.516 469.5,579.5C 453.704,586.565 438.037,593.898 422.5,601.5C 428.281,608.722 432.781,616.722 436,625.5C 438.147,638.677 432.647,643.51 419.5,640C 414.374,636.525 411.208,631.691 410,625.5C 408.67,619.548 408.337,613.548 409,607.5C 410.667,606.167 412.333,606.167 414,607.5C 413.764,616.449 415.764,624.782 420,632.5C 429.48,636.354 432.48,633.354 429,623.5C 425.759,617.098 421.925,611.098 417.5,605.5C 415.659,604.77 413.825,604.103 412,603.5C 411.28,601.888 411.446,600.388 412.5,599C 452.193,579.825 492.193,561.325 532.5,543.5 Z"/></g>
<g><path style="opacity:1" fill="#fafafa" d="M 270.5,612.5 C 241.796,644.37 213.63,676.703 186,709.5C 182.667,714.167 179.333,718.833 176,723.5C 171.835,729.012 173.002,732.846 179.5,735C 188.708,737.007 198.041,737.84 207.5,737.5C 244.883,735.496 282.217,732.829 319.5,729.5C 324.762,729.195 329.928,729.529 335,730.5C 335.75,729.874 336.584,729.374 337.5,729C 345.011,728.829 352.345,728.329 359.5,727.5C 360.167,727.5 360.833,727.5 361.5,727.5C 380.5,727.5 399.5,727.5 418.5,727.5C 482.425,727.974 546.092,732.141 609.5,740C 656.873,745.125 701.206,759.458 742.5,783C 781.645,806.449 815.978,835.783 845.5,871C 846.928,871.579 848.262,871.412 849.5,870.5C 849.174,873.338 849.174,876.004 849.5,878.5C 847.617,875.449 845.45,875.115 843,877.5C 843.291,880.295 843.791,883.129 844.5,886C 844.059,892.104 840.726,895.104 834.5,895C 830.833,895.667 827.167,895.667 823.5,895C 714.681,879.481 606.014,862.981 497.5,845.5C 493.316,844.228 488.983,843.228 484.5,842.5C 379.15,825.942 274.15,807.442 169.5,787C 157.783,784.46 146.283,781.293 135,777.5C 127.238,767.482 125.571,756.482 130,744.5C 132.245,739.003 135.245,734.003 139,729.5C 180.702,688.963 222.535,648.63 264.5,608.5C 265.496,608.414 266.329,608.748 267,609.5C 267.415,607.709 268.415,606.376 270,605.5C 271.794,607.464 271.294,608.964 268.5,610C 269.381,610.708 270.047,611.542 270.5,612.5 Z"/></g>
<g><path style="opacity:1" fill="#101010" d="M 967.5,620.5 C 968.248,618.668 969.248,617.001 970.5,615.5C 972.567,614.737 974.234,613.404 975.5,611.5C 975.97,615.74 974.303,619.24 970.5,622C 969.002,622.585 968.002,622.085 967.5,620.5 Z"/></g>
<g><path style="opacity:1" fill="#373737" d="M 990.5,595.5 C 982.82,607.536 975.153,619.536 967.5,631.5C 966.92,629.251 965.587,627.585 963.5,626.5C 964.475,624.205 965.808,622.205 967.5,620.5C 968.002,622.085 969.002,622.585 970.5,622C 974.303,619.24 975.97,615.74 975.5,611.5C 974.234,613.404 972.567,614.737 970.5,615.5C 974.847,608.797 979.18,602.13 983.5,595.5C 983.435,595.938 983.601,596.272 984,596.5C 985.019,595.313 986.186,594.313 987.5,593.5C 988.265,594.612 989.265,595.279 990.5,595.5 Z"/></g>
<g><path style="opacity:1" fill="#141414" d="M 963.5,626.5 C 965.587,627.585 966.92,629.251 967.5,631.5C 966.42,633.996 965.086,636.33 963.5,638.5C 960.7,635.762 961.034,633.262 964.5,631C 963.619,630.292 962.953,629.458 962.5,628.5C 962.833,627.833 963.167,627.167 963.5,626.5 Z"/></g>
<g><path style="opacity:1" fill="#3b3b3b" d="M 962.5,628.5 C 962.953,629.458 963.619,630.292 964.5,631C 961.034,633.262 960.7,635.762 963.5,638.5C 962.488,639.872 961.488,641.205 960.5,642.5C 959.078,641.075 957.411,640.075 955.5,639.5C 957.597,635.628 959.931,631.961 962.5,628.5 Z"/></g>
<g><path style="opacity:1" fill="#0f0f0f" d="M 955.5,639.5 C 957.411,640.075 959.078,641.075 960.5,642.5C 946.647,665.028 932.647,687.528 918.5,710C 916.094,710.779 914.427,709.946 913.5,707.5C 927.024,684.434 941.024,661.768 955.5,639.5 Z"/></g>
<g><path style="opacity:1" fill="#343434" d="M 1413.5,670.5 C 1418.69,670.179 1423.69,670.513 1428.5,671.5C 1422.91,675.848 1423.41,677.182 1430,675.5C 1431.03,675.836 1431.53,676.503 1431.5,677.5C 1423.32,677.159 1415.32,676.492 1407.5,675.5C 1409.53,675.662 1411.53,675.495 1413.5,675C 1412.69,674.692 1412.03,674.192 1411.5,673.5C 1412.19,672.482 1412.86,671.482 1413.5,670.5 Z"/></g>
<g><path style="opacity:1" fill="#0e0e0e" d="M 1726.5,347.5 C 1727.61,348.946 1727.78,350.613 1727,352.5C 1675.83,474.029 1623.49,595.029 1570,715.5C 1559.78,728.48 1546.28,734.98 1529.5,735C 1517.17,735.667 1504.83,735.667 1492.5,735C 1427.51,725.502 1362.51,716.169 1297.5,707C 1256.93,703.02 1216.26,700.853 1175.5,700.5C 1170.35,699.673 1165.02,699.173 1159.5,699C 1161.39,697.921 1161.73,696.587 1160.5,695C 1171.49,694.5 1182.49,694.333 1193.5,694.5C 1228.94,695.006 1264.27,697.172 1299.5,701C 1351.68,707.454 1403.68,715.12 1455.5,724C 1479.34,728.098 1503.34,729.765 1527.5,729C 1538.85,728.584 1549.18,725.251 1558.5,719C 1564.71,712.088 1569.55,704.254 1573,695.5C 1612.12,604.928 1650.95,514.261 1689.5,423.5C 1700.41,398.642 1711.24,373.642 1722,348.5C 1723.36,347.62 1724.86,347.286 1726.5,347.5 Z"/></g>
<g><path style="opacity:1" fill="#343434" d="M 1193.5,694.5 C 1182.49,694.333 1171.49,694.5 1160.5,695C 1161.73,696.587 1161.39,697.921 1159.5,699C 1165.02,699.173 1170.35,699.673 1175.5,700.5C 1161.17,700.5 1146.83,700.5 1132.5,700.5C 1134.17,698.5 1135.83,696.5 1137.5,694.5C 1156.33,693.305 1174.99,693.305 1193.5,694.5 Z"/></g>
<g><path style="opacity:1" fill="#0c0c0c" d="M 360.5,721.5 C 361.5,721.5 362.5,721.5 363.5,721.5C 363.804,722.15 364.137,722.817 364.5,723.5C 363.476,724.852 362.476,726.185 361.5,727.5C 360.833,727.5 360.167,727.5 359.5,727.5C 358.167,727.5 356.833,727.5 355.5,727.5C 357.167,725.5 358.833,723.5 360.5,721.5 Z"/></g>
<g><path style="opacity:1" fill="#0d0d0d" d="M 369.5,721.5 C 439.671,720.244 509.671,723.078 579.5,730C 616.783,733.991 653.449,740.991 689.5,751C 722.165,763.156 752.165,779.656 779.5,800.5C 779.351,801.552 779.517,802.552 780,803.5C 783.688,807.188 787.355,810.855 791,814.5C 792.406,813.586 793.906,812.92 795.5,812.5C 815.876,829.209 834.209,847.875 850.5,868.5C 850.137,869.183 849.804,869.85 849.5,870.5C 848.262,871.412 846.928,871.579 845.5,871C 815.978,835.783 781.645,806.449 742.5,783C 701.206,759.458 656.873,745.125 609.5,740C 546.092,732.141 482.425,727.974 418.5,727.5C 404.673,726.669 390.673,726.169 376.5,726C 373.774,725.818 371.107,725.318 368.5,724.5C 369.127,723.583 369.461,722.583 369.5,721.5 Z"/></g>
<g><path style="opacity:1" fill="#333333" d="M 354.5,721.5 C 356.5,721.5 358.5,721.5 360.5,721.5C 358.833,723.5 357.167,725.5 355.5,727.5C 353.833,727.5 352.167,727.5 350.5,727.5C 351.859,725.482 353.193,723.482 354.5,721.5 Z"/></g>
<g><path style="opacity:1" fill="#2c2c2c" d="M 363.5,721.5 C 365.5,721.5 367.5,721.5 369.5,721.5C 369.461,722.583 369.127,723.583 368.5,724.5C 371.107,725.318 373.774,725.818 376.5,726C 390.673,726.169 404.673,726.669 418.5,727.5C 399.5,727.5 380.5,727.5 361.5,727.5C 362.476,726.185 363.476,724.852 364.5,723.5C 364.137,722.817 363.804,722.15 363.5,721.5 Z"/></g>
<g><path style="opacity:1" fill="#bebebe" d="M 350.5,727.5 C 352.167,727.5 353.833,727.5 355.5,727.5C 356.833,727.5 358.167,727.5 359.5,727.5C 352.345,728.329 345.011,728.829 337.5,729C 336.584,729.374 335.75,729.874 335,730.5C 329.928,729.529 324.762,729.195 319.5,729.5C 329.643,728.22 339.976,727.553 350.5,727.5 Z"/></g>
<g><path style="opacity:1" fill="#0f0f0f" d="M 535.5,786.5 C 537.042,787.163 538.709,787.83 540.5,788.5C 539.147,789.524 538.48,790.857 538.5,792.5C 535.833,792.5 533.167,792.5 530.5,792.5C 433.772,785.606 337.105,778.272 240.5,770.5C 239.572,769.232 239.405,767.899 240,766.5C 243.081,765.854 246.248,765.521 249.5,765.5C 344.859,772.216 440.193,779.216 535.5,786.5 Z"/></g>
<g><path style="opacity:1" fill="#f2f2f2" d="M 480.5,848.5 C 485.066,849.807 489.733,850.474 494.5,850.5C 597.56,868.065 700.894,884.232 804.5,899C 814.764,900.728 825.098,901.562 835.5,901.5C 834.391,902.29 833.058,902.79 831.5,903C 830.915,904.302 830.249,905.469 829.5,906.5C 829.915,904.052 828.915,902.719 826.5,902.5C 823.326,904.828 819.992,906.994 816.5,909C 811.5,909.667 806.5,909.667 801.5,909C 697.647,891.378 593.647,874.544 489.5,858.5C 482.966,857.084 476.299,855.751 469.5,854.5C 367.893,838.954 266.559,821.788 165.5,803C 150.568,800.024 136.568,794.691 123.5,787C 115.195,780.337 114.362,772.837 121,764.5C 123.263,770.861 126.429,776.694 130.5,782C 140.169,786.058 150.169,789.058 160.5,791C 266.839,812.086 373.506,831.253 480.5,848.5 Z"/></g>
<g><path style="opacity:1" fill="#0e0e0e" d="M 329.5,541.5 C 329.392,543.783 328.559,545.783 327,547.5C 305.94,567.728 285.107,588.061 264.5,608.5C 222.535,648.63 180.702,688.963 139,729.5C 135.245,734.003 132.245,739.003 130,744.5C 125.571,756.482 127.238,767.482 135,777.5C 146.283,781.293 157.783,784.46 169.5,787C 274.15,807.442 379.15,825.942 484.5,842.5C 483.66,844.853 482.326,846.853 480.5,848.5C 373.506,831.253 266.839,812.086 160.5,791C 150.169,789.058 140.169,786.058 130.5,782C 126.429,776.694 123.263,770.861 121,764.5C 114.362,772.837 115.195,780.337 123.5,787C 136.568,794.691 150.568,800.024 165.5,803C 266.559,821.788 367.893,838.954 469.5,854.5C 471.931,856.426 474.264,858.592 476.5,861C 475.552,861.483 474.552,861.649 473.5,861.5C 377.368,846.507 281.368,830.674 185.5,814C 165.561,810.453 146.227,804.786 127.5,797C 121.1,793.934 115.933,789.434 112,783.5C 109.085,774.815 110.585,766.981 116.5,760C 118.367,759.289 119.867,759.789 121,761.5C 120.842,747.828 125.175,735.828 134,725.5C 196.778,665.057 259.278,604.224 321.5,543C 323.076,541.423 324.909,540.256 327,539.5C 328.301,539.639 329.134,540.305 329.5,541.5 Z"/></g>
<g><path style="opacity:1" fill="#3b3b3b" d="M 535.5,786.5 C 545.165,787.642 554.831,788.642 564.5,789.5C 563.375,791.129 562.041,792.629 560.5,794C 561.056,794.383 561.389,794.883 561.5,795.5C 550.999,794.746 540.666,793.746 530.5,792.5C 533.167,792.5 535.833,792.5 538.5,792.5C 538.48,790.857 539.147,789.524 540.5,788.5C 538.709,787.83 537.042,787.163 535.5,786.5 Z"/></g>
<g><path style="opacity:1" fill="#0f0f0f" d="M 514.5,812.5 C 514.611,813.117 514.944,813.617 515.5,814C 514.421,815.859 513.088,817.359 511.5,818.5C 471.128,811.991 430.961,804.658 391,796.5C 390.333,795.167 390.333,793.833 391,792.5C 393.737,791.39 396.571,791.223 399.5,792C 437.815,798.996 476.149,805.83 514.5,812.5 Z"/></g>
<g><path style="opacity:1" fill="#0f0f0f" d="M 1242.5,840.5 C 1240.87,843.738 1241.87,845.905 1245.5,847C 1244.91,847.464 1244.24,847.631 1243.5,847.5C 1203.96,833.364 1163.63,821.864 1122.5,813C 1027.53,792.242 943.53,813.408 870.5,876.5C 869.143,877.685 867.643,878.685 866,879.5C 863.277,878.792 862.277,877.125 863,874.5C 935.331,810.683 1019.16,787.517 1114.5,805C 1158.12,813.486 1200.79,825.319 1242.5,840.5 Z"/></g>
<g><path style="opacity:1" fill="#eaeaea" d="M 973.5,690.5 C 974.93,691.537 976.597,692.204 978.5,692.5C 971.102,696.035 963.769,699.868 956.5,704C 941.237,713.25 927.737,724.75 916,738.5C 896.118,763.274 880.118,790.274 868,819.5C 869.298,820.56 870.465,821.726 871.5,823C 866.216,834.184 861.716,845.684 858,857.5C 857.968,841.288 860.968,825.622 867,810.5C 888.291,757.719 923.791,717.719 973.5,690.5 Z"/></g>
<g><path style="opacity:1" fill="#3b3b3b" d="M 779.5,800.5 C 785.14,804.147 790.473,808.147 795.5,812.5C 793.906,812.92 792.406,813.586 791,814.5C 787.355,810.855 783.688,807.188 780,803.5C 779.517,802.552 779.351,801.552 779.5,800.5 Z"/></g>
<g><path style="opacity:1" fill="#fcfcfc" d="M 1243.5,847.5 C 1248.67,849.671 1254,851.671 1259.5,853.5C 1303.9,870.914 1347.9,889.414 1391.5,909C 1444.05,934.442 1496.38,960.109 1548.5,986C 1560.14,991.325 1572.14,995.658 1584.5,999C 1590.76,1000.32 1597.09,1000.82 1603.5,1000.5C 1599.08,1000.97 1595.41,1001.97 1592.5,1003.5C 1592.5,1004.5 1592.5,1005.5 1592.5,1006.5C 1573.38,1001.85 1554.38,996.684 1535.5,991C 1490.97,976.87 1446.3,963.37 1401.5,950.5C 1397.64,948.992 1393.64,947.659 1389.5,946.5C 1322.17,926.114 1253.84,909.948 1184.5,898C 1112.38,889.555 1040.05,883.722 967.5,880.5C 962.527,879.836 957.527,879.503 952.5,879.5C 927.858,877.871 903.191,877.371 878.5,878C 877.663,879.011 877.33,880.178 877.5,881.5C 876.199,879.409 874.699,877.409 873,875.5C 872.329,876.252 871.496,876.586 870.5,876.5C 943.53,813.408 1027.53,792.242 1122.5,813C 1163.63,821.864 1203.96,833.364 1243.5,847.5 Z"/></g>
<g><path style="opacity:1" fill="#303030" d="M 514.5,812.5 C 520.368,813.467 526.035,814.8 531.5,816.5C 528.802,816.845 526.802,818.178 525.5,820.5C 520.586,820.638 515.919,819.972 511.5,818.5C 513.088,817.359 514.421,815.859 515.5,814C 514.944,813.617 514.611,813.117 514.5,812.5 Z"/></g>
<g><path style="opacity:1" fill="#0f0f0f" d="M 343.5,748.5 C 345.668,753.732 348.668,754.399 352.5,750.5C 352.137,749.817 351.804,749.15 351.5,748.5C 437.075,748.68 522.408,753.18 607.5,762C 668.978,767.934 725.311,787.934 776.5,822C 794.9,834.564 810.9,849.731 824.5,867.5C 827.687,868.865 831.02,869.699 834.5,870C 836.527,871.396 836.86,873.062 835.5,875C 830.833,875.667 826.167,875.667 821.5,875C 722.767,856.886 624.1,838.719 525.5,820.5C 526.802,818.178 528.802,816.845 531.5,816.5C 618.545,831.744 705.545,846.91 792.5,862C 757.673,837.042 719.339,819.376 677.5,809C 639.079,802.371 600.413,797.871 561.5,795.5C 561.389,794.883 561.056,794.383 560.5,794C 562.041,792.629 563.375,791.129 564.5,789.5C 598.326,791.59 631.993,795.09 665.5,800C 715.502,809.761 760.669,829.928 801,860.5C 801.49,861.793 801.657,863.127 801.5,864.5C 805.794,864.577 809.961,865.244 814,866.5C 814.167,866.167 814.333,865.833 814.5,865.5C 803.15,851.506 790.15,839.339 775.5,829C 731.903,799.238 683.903,780.238 631.5,772C 564.138,762.946 496.471,757.613 428.5,756C 352.798,753.482 277.132,754.149 201.5,758C 194.582,759.597 187.582,760.764 180.5,761.5C 170.122,760.889 162.622,755.889 158,746.5C 155.231,740.428 153.897,734.095 154,727.5C 155.667,726.167 157.333,726.167 159,727.5C 160.294,735.053 162.961,742.053 167,748.5C 169.408,750.956 172.241,752.789 175.5,754C 199.381,751.34 223.381,749.674 247.5,749C 279.498,748.5 311.498,748.333 343.5,748.5 Z"/></g>
<g><path style="opacity:1" fill="#313131" d="M 343.5,748.5 C 346.167,748.5 348.833,748.5 351.5,748.5C 351.804,749.15 352.137,749.817 352.5,750.5C 348.668,754.399 345.668,753.732 343.5,748.5 Z"/></g>
<g><path style="opacity:1" fill="#363636" d="M 484.5,842.5 C 488.983,843.228 493.316,844.228 497.5,845.5C 495.777,846.605 494.777,848.272 494.5,850.5C 489.733,850.474 485.066,849.807 480.5,848.5C 482.326,846.853 483.66,844.853 484.5,842.5 Z"/></g>
<g><path style="opacity:1" fill="#383838" d="M 1242.5,840.5 C 1249.64,843.025 1256.64,845.691 1263.5,848.5C 1260.41,849.209 1259.08,850.876 1259.5,853.5C 1254,851.671 1248.67,849.671 1243.5,847.5C 1244.24,847.631 1244.91,847.464 1245.5,847C 1241.87,845.905 1240.87,843.738 1242.5,840.5 Z"/></g>
<g><path style="opacity:1" fill="#0e0e0e" d="M 497.5,845.5 C 606.014,862.981 714.681,879.481 823.5,895C 827.167,895.667 830.833,895.667 834.5,895C 840.726,895.104 844.059,892.104 844.5,886C 843.791,883.129 843.291,880.295 843,877.5C 845.45,875.115 847.617,875.449 849.5,878.5C 854.796,892.208 850.129,899.874 835.5,901.5C 825.098,901.562 814.764,900.728 804.5,899C 700.894,884.232 597.56,868.065 494.5,850.5C 494.777,848.272 495.777,846.605 497.5,845.5 Z"/></g>
<g><path style="opacity:1" fill="#3a3a3a" d="M 469.5,854.5 C 476.299,855.751 482.966,857.084 489.5,858.5C 485.26,858.893 484.593,860.559 487.5,863.5C 482.586,863.638 477.919,862.972 473.5,861.5C 474.552,861.649 475.552,861.483 476.5,861C 474.264,858.592 471.931,856.426 469.5,854.5 Z"/></g>
<g><path style="opacity:1" fill="#0f0f0f" d="M 489.5,858.5 C 593.647,874.544 697.647,891.378 801.5,909C 806.5,909.667 811.5,909.667 816.5,909C 819.992,906.994 823.326,904.828 826.5,902.5C 828.915,902.719 829.915,904.052 829.5,906.5C 825.732,911.559 820.732,914.893 814.5,916.5C 819.343,922.091 825.343,925.925 832.5,928C 851.264,932.275 868.764,929.442 885,919.5C 888.826,920.969 889.326,923.136 886.5,926C 865.155,938.367 843.155,939.7 820.5,930C 814.833,927 810.5,922.667 807.5,917C 804.711,916.759 802.044,916.092 799.5,915C 695.353,897.92 591.353,880.753 487.5,863.5C 484.593,860.559 485.26,858.893 489.5,858.5 Z"/></g>
<g><path style="opacity:1" fill="#0b0b0b" d="M 952.5,879.5 C 951.375,881.129 950.041,882.629 948.5,884C 942.509,884.499 936.509,884.666 930.5,884.5C 917.159,884.512 903.826,884.179 890.5,883.5C 885.778,883.492 881.445,882.825 877.5,881.5C 877.33,880.178 877.663,879.011 878.5,878C 903.191,877.371 927.858,877.871 952.5,879.5 Z"/></g>
<g><path style="opacity:1" fill="#393939" d="M 1727.5,874.5 C 1728.61,876.223 1730.27,877.223 1732.5,877.5C 1732.12,879.698 1731.46,881.698 1730.5,883.5C 1729.08,881.692 1727.08,881.025 1724.5,881.5C 1725.32,879.013 1726.32,876.679 1727.5,874.5 Z"/></g>
<g><path style="opacity:1" fill="#0e0e0e" d="M 967.5,880.5 C 1040.05,883.722 1112.38,889.555 1184.5,898C 1253.84,909.948 1322.17,926.114 1389.5,946.5C 1388.17,948.5 1386.5,950.167 1384.5,951.5C 1317.81,931.792 1250.14,915.959 1181.5,904C 1152.96,899.83 1124.3,896.83 1095.5,895C 1052.19,891.687 1008.86,888.853 965.5,886.5C 965.389,885.883 965.056,885.383 964.5,885C 966.141,883.871 967.141,882.371 967.5,880.5 Z"/></g>
<g><path style="opacity:1" fill="#121212" d="M 932.5,899.5 C 931.25,901.154 929.916,902.821 928.5,904.5C 907.943,900.955 887.609,896.455 867.5,891C 864.756,890.197 862.089,889.197 859.5,888C 857.816,885.214 858.483,883.38 861.5,882.5C 866.48,885.216 871.813,887.049 877.5,888C 895.812,892.051 914.146,895.884 932.5,899.5 Z"/></g>
<g><path style="opacity:1" fill="#343434" d="M 952.5,879.5 C 957.527,879.503 962.527,879.836 967.5,880.5C 967.141,882.371 966.141,883.871 964.5,885C 965.056,885.383 965.389,885.883 965.5,886.5C 953.704,885.873 942.038,885.207 930.5,884.5C 936.509,884.666 942.509,884.499 948.5,884C 950.041,882.629 951.375,881.129 952.5,879.5 Z"/></g>
<g><path style="opacity:1" fill="#494949" d="M 1724.5,883.5 C 1726.5,887.168 1725.5,889.501 1721.5,890.5C 1721.93,887.843 1722.93,885.509 1724.5,883.5 Z"/></g>
<g><path style="opacity:1" fill="#0c0c0c" d="M 935.5,900.5 C 936.167,900.5 936.833,900.5 937.5,900.5C 939.01,903.255 941.01,905.588 943.5,907.5C 941.585,907.784 939.919,907.451 938.5,906.5C 937.048,905.698 935.382,905.198 933.5,905C 934.167,904.333 934.833,903.667 935.5,903C 934.226,902.023 934.226,901.189 935.5,900.5 Z"/></g>
<g><path style="opacity:1" fill="#3b3b3b" d="M 932.5,899.5 C 933.791,899.263 934.791,899.596 935.5,900.5C 934.226,901.189 934.226,902.023 935.5,903C 934.833,903.667 934.167,904.333 933.5,905C 935.382,905.198 937.048,905.698 938.5,906.5C 934.963,906.689 931.63,906.023 928.5,904.5C 929.916,902.821 931.25,901.154 932.5,899.5 Z"/></g>
<g><path style="opacity:1" fill="#383838" d="M 937.5,900.5 C 942.974,901.723 948.307,903.056 953.5,904.5C 952.075,905.922 951.075,907.589 950.5,909.5C 948.048,908.935 945.715,908.268 943.5,907.5C 941.01,905.588 939.01,903.255 937.5,900.5 Z"/></g>
<g><path style="opacity:1" fill="#0e0e0e" d="M 953.5,904.5 C 1088.39,930.901 1223.39,956.568 1358.5,981.5C 1359.96,983.463 1361.63,985.296 1363.5,987C 1362.55,987.483 1361.55,987.649 1360.5,987.5C 1360.17,987.5 1359.83,987.5 1359.5,987.5C 1359.42,986.25 1358.76,985.417 1357.5,985C 1354.47,984.505 1351.47,984.671 1348.5,985.5C 1215.52,961.794 1082.85,936.461 950.5,909.5C 951.075,907.589 952.075,905.922 953.5,904.5 Z"/></g>
<g><path style="opacity:1" fill="#151515" d="M 922.5,918.5 C 922.912,920.973 921.912,922.306 919.5,922.5C 899.783,918.372 880.117,914.038 860.5,909.5C 861.396,900.646 866.229,896.646 875,897.5C 875.667,898.833 875.667,900.167 875,901.5C 872.429,902.401 870.096,903.734 868,905.5C 867.568,906.6 868.068,907.267 869.5,907.5C 887.153,911.297 904.82,914.964 922.5,918.5 Z"/></g>
<g><path style="opacity:1" fill="#464646" d="M 922.5,918.5 C 924.117,919.038 925.784,919.371 927.5,919.5C 926.766,920.708 926.433,922.041 926.5,923.5C 928.898,923.259 930.898,923.926 932.5,925.5C 927.965,924.863 923.632,923.863 919.5,922.5C 921.912,922.306 922.912,920.973 922.5,918.5 Z"/></g>
<g><path style="opacity:1" fill="#101010" d="M 1401.5,950.5 C 1446.3,963.37 1490.97,976.87 1535.5,991C 1554.38,996.684 1573.38,1001.85 1592.5,1006.5C 1605.19,1010.39 1618.19,1012.56 1631.5,1013C 1632.77,1014.8 1632.77,1016.63 1631.5,1018.5C 1616.26,1018.49 1601.26,1016.32 1586.5,1012C 1523.55,993.767 1460.88,974.934 1398.5,955.5C 1399.26,953.632 1400.26,951.965 1401.5,950.5 Z"/></g>
<g><path style="opacity:1" fill="#303030" d="M 1389.5,946.5 C 1393.64,947.659 1397.64,948.992 1401.5,950.5C 1400.26,951.965 1399.26,953.632 1398.5,955.5C 1393.56,954.739 1388.9,953.405 1384.5,951.5C 1386.5,950.167 1388.17,948.5 1389.5,946.5 Z"/></g>
<g><path style="opacity:1" fill="#0f0f0f" d="M 927.5,919.5 C 1064.53,945.692 1201.53,971.692 1338.5,997.5C 1338.39,998.117 1338.06,998.617 1337.5,999C 1338.7,1000.69 1340.03,1002.19 1341.5,1003.5C 1204.96,978.615 1068.63,952.615 932.5,925.5C 930.898,923.926 928.898,923.259 926.5,923.5C 926.433,922.041 926.766,920.708 927.5,919.5 Z"/></g>
<g><path style="opacity:1" fill="#353535" d="M 1358.5,981.5 C 1364.63,981.946 1370.63,982.946 1376.5,984.5C 1376.14,986.371 1375.14,987.871 1373.5,989C 1374.74,989.232 1375.74,989.732 1376.5,990.5C 1371.07,989.35 1365.74,988.35 1360.5,987.5C 1361.55,987.649 1362.55,987.483 1363.5,987C 1361.63,985.296 1359.96,983.463 1358.5,981.5 Z"/></g>
<g><path style="opacity:1" fill="#0e0e0e" d="M 1724.5,881.5 C 1727.08,881.025 1729.08,881.692 1730.5,883.5C 1717.84,923.299 1702.34,961.966 1684,999.5C 1676.94,1014.29 1665.44,1023.79 1649.5,1028C 1644.9,1029.32 1640.23,1030.32 1635.5,1031C 1619.47,1031.85 1603.47,1031.51 1587.5,1030C 1545.83,1022.87 1504.49,1014.2 1463.5,1004C 1434.42,999.907 1405.42,995.407 1376.5,990.5C 1375.74,989.732 1374.74,989.232 1373.5,989C 1375.14,987.871 1376.14,986.371 1376.5,984.5C 1402.75,988.74 1429.08,992.574 1455.5,996C 1498.03,1005.63 1540.7,1014.63 1583.5,1023C 1604.92,1026.66 1626.25,1026.33 1647.5,1022C 1659.4,1019.3 1668.57,1012.8 1675,1002.5C 1693.33,966.346 1708.83,929.012 1721.5,890.5C 1725.5,889.501 1726.5,887.168 1724.5,883.5C 1724.5,882.833 1724.5,882.167 1724.5,881.5 Z"/></g>
<g><path style="opacity:1" fill="#0f0f0f" d="M 1762.5,589.5 C 1746.31,640.265 1729.81,690.932 1713,741.5C 1687.17,817.34 1659.17,892.34 1629,966.5C 1623.97,978.065 1617.81,988.898 1610.5,999C 1608.26,999.977 1605.93,1000.48 1603.5,1000.5C 1597.09,1000.82 1590.76,1000.32 1584.5,999C 1572.14,995.658 1560.14,991.325 1548.5,986C 1496.38,960.109 1444.05,934.442 1391.5,909C 1347.9,889.414 1303.9,870.914 1259.5,853.5C 1259.08,850.876 1260.41,849.209 1263.5,848.5C 1310.42,866.531 1356.75,886.031 1402.5,907C 1454.04,932.605 1505.71,957.939 1557.5,983C 1567.98,987.269 1578.64,990.936 1589.5,994C 1595.59,994.861 1601.59,994.527 1607.5,993C 1614.83,982.184 1620.99,970.684 1626,958.5C 1658.97,874.244 1689.97,789.244 1719,703.5C 1730.43,668.38 1741.93,633.38 1753.5,598.5C 1757.19,596.139 1760.19,593.139 1762.5,589.5 Z"/></g>
<g><path style="opacity:1" fill="#474747" d="M 1359.5,987.5 C 1355.69,986.974 1352.02,986.307 1348.5,985.5C 1351.47,984.671 1354.47,984.505 1357.5,985C 1358.76,985.417 1359.42,986.25 1359.5,987.5 Z"/></g>
<g><path style="opacity:1" fill="#363636" d="M 1338.5,997.5 C 1344.7,998.089 1350.7,999.089 1356.5,1000.5C 1351.58,999.415 1349.91,1001.08 1351.5,1005.5C 1348.1,1005.15 1344.76,1004.48 1341.5,1003.5C 1340.03,1002.19 1338.7,1000.69 1337.5,999C 1338.06,998.617 1338.39,998.117 1338.5,997.5 Z"/></g>
</svg>
